<svg xmlns="http://www.w3.org/2000/svg" aria-hidden="true" style="position:absolute;width:0;height:0;overflow:hidden">
<defs>
<symbol id="icon-diagram-1" viewBox="0 0 45 45">
<path fill="#4d5ae5" d="M20.989 21.044h1.499v6.746h-1.499v-6.746zM26.986 24.042h1.499v3.748h-1.499v-3.748zM14.992 26.291h1.499v1.499h-1.499v-1.499zM10.494 25.542h1.499v2.249h-1.499v-2.249z" style="fill:var(--color1, #4d5ae5)"/>
<path fill="#2e2f42" d="M2.249 39.784H38.23c1.242 0 2.249-1.007 2.249-2.249v-2.998c0-1.242-1.007-2.249-2.249-2.249h-.75V13.594l4.258-4.034c.988.487 2.184.191 2.831-.701s.556-2.121-.214-2.909-1.997-.905-2.904-.278c-.906.627-1.228 1.817-.763 2.815l-3.208 3.041V9.799c0-1.242-1.007-2.249-2.249-2.249H5.247c-1.242 0-2.249 1.007-2.249 2.249v22.488h-.75c-1.242 0-2.249 1.007-2.249 2.249v2.998c0 1.242 1.007 2.249 2.249 2.249zM42.728 6.801c.414 0 .75.336.75.75s-.336.75-.75.75-.75-.336-.75-.75.336-.75.75-.75zM4.498 9.8c0-.414.336-.75.75-.75h29.984c.414 0 .75.336.75.75v3.148l-1.499 1.425V11.3c0-.414-.336-.75-.75-.75H6.747c-.414 0-.75.336-.75.75v18.74c0 .414.336.75.75.75h26.986c.414 0 .75-.336.75-.75V16.435l1.499-1.421v17.274H4.498V9.8zm6.746 9.745c-1.014-.003-1.905.673-2.175 1.65s.148 2.015 1.02 2.532c.872.517 1.983.388 2.711-.318l2.606 1.307c.303.152.67.081.895-.172l5.539-6.232 5.445 4.08c.292.219.7.195.965-.055l4.732-4.483v11.434H7.495V12.047h25.487v3.741l-5.304 5.023-5.491-4.116a.7498.7498 0 0 0-1.01.101l-5.615 6.318-2.099-1.05c.015-.09.025-.181.029-.272 0-1.242-1.007-2.249-2.249-2.249zm.75 2.249c0 .414-.336.75-.75.75s-.75-.336-.75-.75.336-.75.75-.75.75.336.75.75zm4.497 11.993h7.496v.75c0 .414-.336.75-.75.75H17.24c-.414 0-.75-.336-.75-.75v-.75zm-14.992.75c0-.414.336-.75.75-.75h12.743v.75c0 1.242 1.007 2.249 2.249 2.249h5.997c1.242 0 2.249-1.007 2.249-2.249v-.75H38.23c.414 0 .75.336.75.75v2.998c0 .414-.336.75-.75.75H2.249c-.414 0-.75-.336-.75-.75v-2.998z" style="fill:var(--color2, #2e2f42)"/>
</symbol>
<symbol id="icon-clock-1" viewBox="0 0 45 45">
<path fill="#2e2f42" d="M44.011 21.517C44.009 9.631 34.371-.003 22.484 0S.964 9.64.967 21.527c.002 9.363 6.057 17.65 14.976 20.498.085.027.174.041.263.04.17 0 .336-.046.482-.132a.893.893 0 0 0 .398-.501l5.435-17.227c1.486-.008 2.684-1.218 2.676-2.704s-1.218-2.684-2.704-2.677c-.4.002-.794.094-1.153.269l-7.18-7.181c-.356-.344-.924-.334-1.268.022-.336.348-.336.899 0 1.246l7.176 7.185c-.551 1.124-.236 2.481.754 3.247l-5.179 16.415C5.409 36.257.168 24.904 3.938 14.67S19.061-.805 29.295 2.965C39.529 6.735 44.77 18.088 41 28.322c-1.842 5-5.626 9.044-10.494 11.213l-.56-2.636c-.102-.484-.578-.794-1.063-.691a.8985.8985 0 0 0-.411.208l-5.396 4.817c-.37.329-.403.896-.073 1.266.107.12.244.209.398.258l6.889 2.199c.471.151.976-.108 1.128-.58a.9018.9018 0 0 0 .024-.461l-.55-2.586c7.965-3.358 13.137-11.169 13.119-19.813zm-21.522-.896c.495 0 .897.402.897.897s-.402.897-.897.897-.897-.401-.897-.897.401-.897.897-.897zm2.954 20.902 3.071-2.74.848 3.994-3.919-1.255z" style="fill:var(--color2, #2e2f42)"/>
<path fill="#4d5ae5" d="M21.592 4.479v1.793c0 .495.401.897.897.897s.897-.401.897-.897V4.479c0-.495-.402-.897-.897-.897s-.897.402-.897.897zM5.451 20.621c-.495 0-.897.402-.897.897s.401.897.897.897h1.793c.495 0 .897-.401.897-.897s-.401-.897-.897-.897H5.451zM39.527 22.414c.495 0 .897-.401.897-.897s-.401-.897-.897-.897h-1.793c-.495 0-.897.402-.897.897s.402.897.897.897h1.793z" style="fill:var(--color1, #4d5ae5)"/>
</symbol>
<symbol id="icon-astronaut-1" viewBox="0 0 45 45">
<path fill="#4d5ae5" d="M44.964 6.362a.75.75 0 0 0-.605-.51l-2.687-.391-1.202-2.435c-.252-.513-1.093-.513-1.345 0l-1.202 2.435-2.687.391a.7514.7514 0 0 0-.606.51c-.088.271-.015.57.19.769l1.945 1.895-.459 2.676c-.048.281.067.566.298.734.233.17.538.19.791.057l2.403-1.264 2.403 1.264c.109.058.23.086.35.086.155 0 .311-.048.441-.143a.7486.7486 0 0 0 .298-.734l-.459-2.676 1.945-1.895c.204-.2.277-.497.189-.769zM41.5 8.228a.7512.7512 0 0 0-.215.664l.268 1.567-1.407-.739c-.109-.058-.229-.086-.35-.086s-.239.028-.35.086l-1.407.739.269-1.567a.7521.7521 0 0 0-.215-.664l-1.139-1.11 1.574-.229a.7516.7516 0 0 0 .565-.41l.704-1.425.703 1.425c.109.221.32.375.565.41l1.574.229-1.138 1.11zM36.75 28.859h-1.5v1.5h1.5v-1.5zM36.75 31.859h-1.5v1.5h1.5v-1.5zM38.25 30.359h-1.5v1.5h1.5v-1.5zM35.25 30.359h-1.5v1.5h1.5v-1.5zM31.5 37.11H30v1.5h1.5v-1.5zM31.5 40.11H30v1.5h1.5v-1.5zM33 38.61h-1.5v1.5H33v-1.5zM30 38.61h-1.5v1.5H30v-1.5zM22.5 34.11H21v1.5h1.5v-1.5zM22.5 37.11H21v1.5h1.5v-1.5zM24 35.609h-1.5v1.5H24v-1.5zM21 35.609h-1.5v1.5H21v-1.5zM8.25 8.609h-1.5v1.5h1.5v-1.5zM8.25 11.609h-1.5v1.5h1.5v-1.5zM9.75 10.109h-1.5v1.5h1.5v-1.5zM6.75 10.109h-1.5v1.5h1.5v-1.5z" style="fill:var(--color1, #4d5ae5)"/>
<path fill="#2e2f42" d="M34.755 19.912c-.404-.545-.997-.896-1.671-.991-.676-.096-1.344.082-1.884.495l-1.761 1.35-2.669 1.993-1.91-.761c3.405-1.528 5.785-4.934 5.785-8.888 0-5.376-4.391-9.75-9.789-9.75s-9.789 4.374-9.789 9.75c0 1.949.583 3.761 1.575 5.285l-3.887-.034h-.007c-.012 0-.022.006-.033.007a.7467.7467 0 0 0-.218.043c-.018.007-.037.011-.054.019-.009.004-.018.004-.027.009l-4.547 2.245c-.001 0-.001 0-.001.001l-2.663 1.28a.721.721 0 0 0-.089.049c-1.061.706-1.423 2.094-.841 3.228.31.603.837 1.047 1.485 1.25.25.078.505.116.758.116.407 0 .811-.1 1.18-.297l1.952-1.038 3.184-1.644 1.908-.011-7.652 7.616c-.001.001-.001.001-.002.001L1.205 33.11c-.445.443-.689 1.03-.689 1.656s.245 1.214.689 1.658c.457.454 1.058.682 1.658.682s1.201-.228 1.66-.682l1.848-1.841 2.448-1.828 1.267 1.261-2.477 2.467-.002.002-1.883 1.875c-.445.443-.689 1.03-.689 1.656s.245 1.214.689 1.658c.457.454 1.058.683 1.659.683s1.202-.228 1.66-.683l4.896-4.875c.001-.001.001-.002.001-.002l1.42-1.406-.005-.005c.009-.009.022-.012.031-.022l7.265-7.957 4.881.694c.035.005.071.008.106.008.091 0 .179-.022.263-.054.025-.009.046-.021.07-.033.027-.013.055-.021.081-.038l4.519-3c.017-.011.026-.029.041-.041.018-.014.041-.02.057-.036l1.788-1.675c.93-.872 1.059-2.3.298-3.321zM2.996 24.989a.9996.9996 0 0 1-.785.073 1.0068 1.0068 0 0 1-.6-.503c-.226-.441-.095-.978.301-1.268l1.847-.889.631 1.846-1.395.742zm4.918-2.57-2.177 1.125-.617-1.805 2.85-1.407-.056 2.087zm21.233-9.31c0 1.292-.308 2.51-.842 3.599l-5.88-2.671c-.062-.806-.48-1.512-1.109-1.952l2.059-6.835c3.344 1.064 5.772 4.183 5.772 7.858zm-16.578 0c0-4.549 3.719-8.25 8.289-8.25.356 0 .703.03 1.048.073l-2.014 6.685c-.027-.001-.053-.008-.08-.008-1.452 0-2.633 1.178-2.633 2.625s1.181 2.625 2.633 2.625c.977 0 1.82-.539 2.276-1.328l5.432 2.468c-1.511 2.034-3.93 3.361-6.661 3.361-4.57 0-8.289-3.701-8.289-8.25zm8.376 1.125c0 .62-.508 1.125-1.133 1.125s-1.133-.505-1.133-1.125.508-1.125 1.133-1.125 1.133.505 1.133 1.125zM3.466 35.362c-.332.329-.87.329-1.201.001-.16-.16-.248-.37-.248-.595s.088-.434.248-.593l1.353-1.348 1.197 1.192-1.348 1.342zm4.52 5.25c-.332.329-.871.33-1.202.001-.16-.16-.247-.37-.247-.595s.088-.434.247-.592l1.354-1.349 1.198 1.192-1.349 1.343zm4.896-4.878c-.001.001-.001.001-.002.001l-2.482 2.475L9.2 37.018l2.48-2.468v-.001c0-.001.001-.001.002-.001.056-.056.091-.124.126-.19.01-.02.028-.036.037-.056.023-.058.027-.12.036-.181.004-.035.019-.067.019-.102 0-.05-.018-.099-.028-.148-.009-.045-.009-.091-.026-.134-.028-.071-.077-.133-.128-.194-.014-.017-.02-.037-.035-.053h-.001c-.001 0-.001-.002-.001-.003l-2.26-2.25c-.024-.024-.055-.034-.082-.054-.04-.031-.078-.059-.122-.081-.043-.021-.086-.034-.131-.046a.7018.7018 0 0 0-.145-.028c-.046-.003-.089.001-.134.007-.05.006-.097.013-.146.028-.047.015-.089.038-.133.063-.028.016-.059.021-.086.041l-2.494 1.862-1.267-1.262 3.374-3.356 6.132 6.031-1.304 1.292zm9.589-9.867c-.022-.003-.042.005-.064.004a.7354.7354 0 0 0-.162.01.7472.7472 0 0 0-.124.03.711.711 0 0 0-.136.066.69.69 0 0 0-.117.086c-.018.016-.04.023-.056.041l-6.607 7.236-6.086-5.986 3.984-3.963a.7494.7494 0 0 0-.534-1.281v-.001l-3.12.019.039-2.261 4.365.038c1.779 1.82 4.26 2.954 7.005 2.954.615 0 1.215-.064 1.799-.173.056.045.112.091.182.119l3.389 1.35.214 1.067.25 1.245-4.222-.601zm5.683.25-.44-2.191 2.034-1.519 1.331 1.767-2.925 1.943zm5.278-3.981-1.178 1.104-1.309-1.739 1.169-.896c.218-.168.494-.236.764-.201.271.038.512.18.675.4.305.41.253.983-.12 1.332z" style="fill:var(--color2, #2e2f42)"/>
<path fill="#2e2f42" d="m19.128 26.078-3.014-3a.7484.7484 0 0 0-1.058 0l-3.013 3c-.141.142-.221.332-.221.532s.079.391.221.532l3.013 3c.146.145.338.218.53.218s.383-.073.529-.218l3.014-3c.141-.141.221-.332.221-.532s-.08-.391-.221-.532zm-3.542 2.473-1.95-1.942 1.95-1.942 1.951 1.942-1.951 1.942zM24.137 7.131l-.362 1.457c.1.025 2.444.635 2.444 3.022h1.5c0-2.837-2.342-4.17-3.581-4.478zM27.719 13.109h-1.5v1.5h1.5v-1.5z" style="fill:var(--color2, #2e2f42)"/>
</symbol>
<symbol id="icon-antenna-1" viewBox="0 0 45 45">
<path fill="#2e2f42" d="m43.275 31.075-11.873-11.96 1.318-6.491c.34.133.702.202 1.067.205h.009c1.677.02 3.052-1.323 3.072-3s-1.323-3.052-3-3.072c-1.677-.02-3.052 1.323-3.072 3-.004.359.055.715.175 1.053l-6.975.851L12.618.224a.754.754 0 0 0-.53-.225.7494.7494 0 0 0-.525.218L9.436 2.332c-.293.293-.293.768 0 1.06l1.144 1.161c-4.434 8.153-2.994 18.25 3.543 24.838.06.057.13.104.205.137-.047.254-.072.511-.073.769v8.7h-9c-2.07.002-3.748 1.68-3.75 3.75v1.5c0 .414.336.75.75.75h34.5c.414 0 .75-.336.75-.75v-1.5c-.002-2.07-1.68-3.748-3.75-3.75h-9v-3.856c1.41.296 2.846.446 4.287.45 3.457-.004 6.859-.865 9.9-2.508l1.151 1.157c.14.142.33.223.53.225a.7494.7494 0 0 0 .525-.218l2.127-2.115a.7502.7502 0 0 0 0-1.061zM32.737 8.765c.587-.584 1.537-.582 2.121.006s.582 1.537-.006 2.121c-.281.28-.662.437-1.058.437h-.004c-.828-.004-1.497-.679-1.492-1.508.002-.397.161-.776.442-1.056h-.003zm-1.765 4.928-.842 4.142-1.653-1.663 2.495-2.479zm-.852-1.268-2.7 2.684-2.089-2.1 4.789-.584zM33.756 40.5c1.243 0 2.25 1.007 2.25 2.25v.75h-33v-.75c0-1.243 1.007-2.25 2.25-2.25h28.5zm-10.5-3V39h-7.5v-1.5h7.5zm-7.5-1.5v-5.7c0-1.819 1.682-3.3 3.75-3.3s3.75 1.481 3.75 3.3V36h-7.5zm9-2.385V30.3c0-2.647-2.355-4.8-5.25-4.8a5.3424 5.3424 0 0 0-4.614 2.512c-5.706-6.01-6.991-14.97-3.204-22.341L37.847 31.98a19.439 19.439 0 0 1-13.091 1.636zm15.875-.962L11.019 2.868l1.061-1.057 11.158 11.222c.005 0 .008.01.014.013l18.442 18.55-1.064 1.058z" style="fill:var(--color2, #2e2f42)"/>
<path fill="#4d5ae5" d="M19.513 28.5h-.007c-1.243-.002-2.251 1.004-2.253 2.247S18.257 32.998 19.5 33h.007c1.243.002 2.251-1.004 2.253-2.247s-1.004-2.251-2.247-2.253zm.525 2.782a.7513.7513 0 0 1-.532.218c-.414-.002-.748-.34-.746-.754a.7533.7533 0 0 1 .221-.528c.14-.139.328-.217.525-.218.414.002.748.34.746.754a.7533.7533 0 0 1-.221.528h.007z" style="fill:var(--color1, #4d5ae5)"/>
</symbol>
<symbol id="icon-facebook" viewBox="0 0 45 45">
<path d="M26.719 8.438h7.031V0h-7.031c-5.428 0-9.844 4.416-9.844 9.844v4.219H11.25v8.438h5.625v22.5h8.438v-22.5h7.031l1.406-8.438h-8.438V9.844c0-.762.644-1.406 1.406-1.406z"/>
</symbol>
<symbol id="icon-instagram" viewBox="0 0 45 45">
<path d="M22.5 4.052c6.012 0 6.724.026 9.088.132 2.197.097 3.384.466 4.175.773 1.046.404 1.802.896 2.584 1.679.791.791 1.274 1.538 1.688 2.584.308.791.677 1.986.773 4.175.105 2.373.132 3.085.132 9.088s-.026 6.724-.132 9.088c-.097 2.197-.466 3.384-.773 4.175-.404 1.046-.896 1.802-1.679 2.584-.791.791-1.538 1.274-2.584 1.688-.791.308-1.986.677-4.175.773-2.373.105-3.085.132-9.088.132s-6.724-.026-9.088-.132c-2.197-.097-3.384-.466-4.175-.773-1.046-.404-1.802-.896-2.584-1.679-.791-.791-1.274-1.538-1.688-2.584-.308-.791-.677-1.986-.773-4.175-.105-2.373-.132-3.085-.132-9.088s.026-6.724.132-9.088c.097-2.197.466-3.384.773-4.175.404-1.046.896-1.802 1.679-2.584.791-.791 1.538-1.274 2.584-1.688.791-.308 1.986-.677 4.175-.773 2.364-.105 3.076-.132 9.088-.132zM22.5 0c-6.108 0-6.873.026-9.272.132-2.391.105-4.034.492-5.458 1.046-1.485.58-2.742 1.345-3.99 2.602-1.257 1.248-2.021 2.505-2.602 3.981-.554 1.433-.94 3.067-1.046 5.458C.027 15.627 0 16.392 0 22.5s.026 6.873.132 9.272c.105 2.391.492 4.034 1.046 5.458.58 1.485 1.345 2.742 2.602 3.99 1.248 1.248 2.505 2.021 3.981 2.593 1.433.554 3.067.94 5.458 1.046 2.399.105 3.164.132 9.272.132s6.873-.026 9.272-.132c2.391-.105 4.034-.492 5.458-1.046 1.477-.571 2.733-1.345 3.981-2.593s2.021-2.505 2.593-3.981c.554-1.433.94-3.067 1.046-5.458.105-2.399.132-3.164.132-9.272s-.026-6.873-.132-9.272c-.105-2.391-.492-4.034-1.046-5.458-.554-1.494-1.318-2.751-2.575-3.999-1.248-1.248-2.505-2.021-3.981-2.593-1.433-.554-3.067-.94-5.458-1.046C29.373.027 28.608 0 22.5 0z"/>
<path d="M22.5 10.942c-6.381 0-11.558 5.177-11.558 11.558S16.119 34.058 22.5 34.058 34.058 28.881 34.058 22.5 28.881 10.942 22.5 10.942zm0 19.055c-4.14 0-7.497-3.357-7.497-7.497s3.357-7.497 7.497-7.497 7.497 3.357 7.497 7.497-3.357 7.497-7.497 7.497zM37.213 10.485c0 1.49-1.208 2.698-2.698 2.698s-2.698-1.208-2.698-2.698 1.208-2.698 2.698-2.698 2.698 1.208 2.698 2.698z"/>
</symbol>
<symbol id="icon-twitter" viewBox="0 0 45 45">
<path  d="M45 9.949c-1.652.738-3.437 1.23-5.3 1.45 1.907-1.143 3.366-2.953 4.061-5.106-1.784 1.055-3.762 1.828-5.862 2.241-1.688-1.793-4.087-2.909-6.741-2.909-5.098 0-9.229 4.131-9.229 9.229 0 .721.079 1.424.237 2.101-7.673-.387-14.476-4.061-19.028-9.65a9.2297 9.2297 0 0 0-1.248 4.641c0 3.199 1.626 6.029 4.104 7.682-1.512-.044-2.936-.466-4.184-1.151v.114c0 4.474 3.182 8.209 7.409 9.053-.773.211-1.591.325-2.435.325-.598 0-1.169-.062-1.74-.167 1.178 3.665 4.588 6.337 8.622 6.416-3.164 2.479-7.137 3.955-11.47 3.955-.747 0-1.477-.044-2.206-.132 4.096 2.628 8.947 4.148 14.159 4.148 16.98 0 26.271-14.071 26.271-26.271 0-.404-.009-.8-.026-1.195 1.802-1.292 3.366-2.918 4.605-4.772z"/>
</symbol>
<symbol id="icon-linkedin2" viewBox="0 0 45 45">
<path d="M16.875 16.875h7.783v3.989h.111c1.083-1.942 3.734-3.989 7.683-3.989 8.215 0 9.735 5.114 9.735 11.766v13.547h-8.113V30.179c0-2.865-.059-6.549-4.22-6.549-4.225 0-4.87 3.12-4.87 6.341v12.217h-8.11V16.875zM2.813 16.875h8.438v25.313H2.813V16.875zM11.25 9.844c0 2.33-1.889 4.219-4.219 4.219s-4.219-1.889-4.219-4.219 1.889-4.219 4.219-4.219 4.219 1.889 4.219 4.219z"/>
</symbol>
<symbol id="icon-close" viewBox="0 0 45 45">
<path  d="M22.5 19.318 6.59 3.408 3.408 6.59l15.91 15.91-15.91 15.91 3.182 3.182 15.91-15.91 15.91 15.91 3.182-3.182-15.91-15.91 15.91-15.91-3.182-3.182-15.91 15.91z"/>
</symbol>
<symbol id="icon-email" viewBox="0 0 45 45">
<path d="M37.529 15.029V11.25L22.5 20.654 7.471 11.25v3.779L22.5 24.345zm0-7.558q1.494 0 2.593 1.143t1.099 2.637v22.5q0 1.494-1.099 2.637t-2.593 1.143H7.47q-1.494 0-2.593-1.143t-1.099-2.637v-22.5q0-1.494 1.099-2.637T7.47 7.471h30.059z"/>
</symbol>
<symbol id="icon-phone" viewBox="0 0 45 45">
<path d="M12.393 20.215q4.219 8.174 12.393 12.393l4.131-4.131q.879-.879 1.934-.439 3.164 1.055 6.68 1.055.791 0 1.318.527t.527 1.318v6.592q0 .791-.527 1.318t-1.318.527q-13.184 0-22.544-9.36T5.627 7.471q0-.791.527-1.318t1.318-.527h6.592q.791 0 1.318.527t.527 1.318q0 3.516 1.055 6.68.352 1.143-.439 1.934z"/>
</symbol>
<symbol id="icon-person" viewBox="0 0 45 45">
<path d="M22.5 26.279q4.746 0 9.888 2.065t5.142 5.405v3.779H7.471v-3.779q0-3.34 5.142-5.405t9.888-2.065zm0-3.779q-3.076 0-5.273-2.197T15.03 15.03t2.197-5.317T22.5 7.472t5.273 2.241 2.197 5.317-2.197 5.273T22.5 22.5z"/>
</symbol>
<symbol id="icon-click" viewBox="0 0 56 45">
<path d="M47.506 1.435C48.478.505 49.772-.01 51.114 0s2.628.544 3.586 1.489c.958.945 1.513 2.227 1.549 3.576s-.452 2.659-1.359 3.653L27.358 43.336c-.473.513-1.045.924-1.68 1.21s-1.321.439-2.017.452c-.696.013-1.387-.115-2.032-.377s-1.231-.652-1.723-1.146L1.648 25.118c-.508-.476-.916-1.051-1.199-1.689s-.435-1.327-.447-2.026.116-1.393.376-2.04c.26-.648.648-1.236 1.139-1.731s1.077-.884 1.721-1.145 1.335-.39 2.03-.378c.695.012 1.38.165 2.015.45s1.206.694 1.68 1.206l14.449 14.52L47.377 1.587c.043-.053.089-.104.138-.153h-.007z" style="fill:var(--color1, #f4f4fd)"/>
</symbol>
<symbol id="icon-plane" viewBox="0 0 45 45">
<path d="M45 3.75 0 24.844l14.381 4.439 22.181-17.329L19.69 30.922l.014.004-.017-.004v10.329l8.065-7.841 10.216 3.153L44.999 3.75z" style="fill:var(--color1, #fff)"/>
</symbol>
<symbol id="icon-burger-menu" viewBox="0 0 45 45">
<path d="M6.749 11.251c0-.597.237-1.169.659-1.591s.994-.659 1.591-.659h27c.597 0 1.169.237 1.591.659s.659.994.659 1.591-.237 1.169-.659 1.591c-.422.422-.994.659-1.591.659h-27c-.597 0-1.169-.237-1.591-.659s-.659-.994-.659-1.591zM6.749 22.501c0-.597.237-1.169.659-1.591s.994-.659 1.591-.659h27c.597 0 1.169.237 1.591.659s.659.994.659 1.591-.237 1.169-.659 1.591-.994.659-1.591.659h-27c-.597 0-1.169-.237-1.591-.659s-.659-.994-.659-1.591zM6.749 33.751c0-.597.237-1.169.659-1.591s.994-.659 1.591-.659h27c.597 0 1.169.237 1.591.659s.659.994.659 1.591-.237 1.169-.659 1.591-.994.659-1.591.659h-27c-.597 0-1.169-.237-1.591-.659s-.659-.994-.659-1.591z"/>
</symbol>
</defs>
</svg>